<?xml version="1.0" encoding="UTF-8"?>
<svg id="_图层_2" data-name="图层_2" xmlns="http://www.w3.org/2000/svg" viewBox="0 0 144.02 109.71">
  <defs>
    <style>
      .cls-1 {
        fill: #fff;
        stroke: #231815;
        stroke-miterlimit: 10;
        stroke-width: 3px;
      }
    </style>
  </defs>
  <g id="_图层_1-2" data-name="图层_1">
    <path class="cls-1" d="M121.72,39.4c-8.9-4.5-18.7-5.21-27.47-2.72-2.46-3.02-5.58-5.59-9.28-7.46-3.7-1.87-7.61-2.86-11.5-3.06-3.19-8.54-9.56-16.01-18.46-20.52C36.6-3.67,14.34,3.24,5.3,21.1c-9.03,17.85-1.43,39.88,16.99,49.21,8.9,4.5,18.7,5.21,27.47,2.72,2.46,3.02,5.58,5.59,9.28,7.46,3.7,1.87,7.61,2.86,11.5,3.06,3.19,8.54,9.56,16.01,18.46,20.52,18.42,9.32,40.68,2.4,49.71-15.45,9.03-17.85,1.43-39.88-16.99-49.21Z"/>
  </g>
</svg>