<?xml version="1.0" encoding="UTF-8"?>
<svg id="_图层_2" data-name="图层_2" xmlns="http://www.w3.org/2000/svg" viewBox="0 0 307.92 223.96">
  <defs>
    <style>
      .cls-1 {
        fill: #fff;
      }

      .cls-1, .cls-2 {
        stroke: #231815;
        stroke-miterlimit: 10;
        stroke-width: 3px;
      }

      .cls-2 {
        fill: none;
      }
    </style>
  </defs>
  <g id="_图层_1-2" data-name="图层_1">
    <g>
      <ellipse class="cls-2" cx="158.26" cy="162.03" rx="11.44" ry="7.81"/>
      <ellipse class="cls-2" cx="94.09" cy="142.43" rx="10.48" ry="15.35"/>
      <ellipse class="cls-2" cx="222.43" cy="142.43" rx="10.48" ry="15.35"/>
      <rect class="cls-2" x="7.1" y="118.02" width="38.97" height="6"/>
      <rect class="cls-2" x="1.93" y="151.22" width="38.97" height="6" transform="translate(-22.31 4.79) rotate(-8.4)"/>
      <rect class="cls-2" x="12.06" y="177.52" width="38.97" height="6" transform="translate(-74.18 30.84) rotate(-25.32)"/>
      <rect class="cls-2" x="262.33" y="127.71" width="38.97" height="6"/>
      <rect class="cls-2" x="278.51" y="136.58" width="6" height="38.97" transform="translate(86 411.76) rotate(-81.6)"/>
      <rect class="cls-2" x="274.9" y="161.03" width="6" height="38.97" transform="translate(-4.49 353.93) rotate(-64.56)"/>
      <path class="cls-2" d="M272.85,90.94h0s27.28-57.8,0-79.1c-27.28-21.31-57.45,13.76-57.45,13.76-28.73-14.97-108.13-.58-108.13-.58,0,0-24.93-26.14-56.87-17.42-31.94,8.71-13.62,84.13-13.62,84.13h0c-10.41,13.27-16.32,43.1-16.32,59.27,0,51.64,65.76,71.47,140.14,71.47s128.29-23.11,128.29-74.75c0-16.49-5.24-43.32-16.02-56.77Z"/>
      <path class="cls-1" d="M285.62,39.4c-8.9-4.5-18.7-5.21-27.47-2.72-2.46-3.02-5.58-5.59-9.28-7.46-3.7-1.87-7.61-2.86-11.5-3.06-3.19-8.54-9.56-16.01-18.46-20.52-18.42-9.32-40.68-2.4-49.71,15.45-9.03,17.85-1.43,39.88,16.99,49.21,8.9,4.5,18.7,5.21,27.47,2.72,2.46,3.02,5.58,5.59,9.28,7.46,3.7,1.87,7.61,2.86,11.5,3.06,3.19,8.54,9.56,16.01,18.46,20.52,18.42,9.32,40.68,2.4,49.71-15.45,9.03-17.85,1.43-39.88-16.99-49.21Z"/>
    </g>
  </g>
</svg>